<?xml version="1.0" encoding="UTF-8"?>
<!-- Generator: visioncortex VTracer 0.6.2 -->
<svg version="1.1" xmlns="http://www.w3.org/2000/svg" width="1280" height="1280">
<path d="M0 0 C3.49894234 0.00915148 6.99721458 0.00232377 10.49609375 -0.02050781 C35.83622415 -0.18475507 60.62433413 1.32045463 85.76953125 4.44604492 C86.53550062 4.54041147 87.30146999 4.63477802 88.09065056 4.73200417 C90.3993992 5.01687488 92.70783977 5.30407937 95.01611328 5.59277344 C95.70099162 5.67835384 96.38586996 5.76393425 97.09150219 5.852108 C112.50792515 7.80743625 127.70087158 10.70379445 142.89453125 13.94604492 C143.76800201 14.13145844 144.64147278 14.31687195 145.54141235 14.50790405 C177.75643336 21.39994004 177.75643336 21.39994004 188.20703125 27.69604492 C188.80966797 28.02733398 189.41230469 28.35862305 190.03320312 28.69995117 C194.00254667 30.99557572 197.1501312 33.69675452 200.46484375 36.86401367 C205.85092799 41.81996812 211.52860174 44.63314453 218.20703125 47.50854492 C219.34358154 48.01748291 220.48013184 48.5264209 221.65112305 49.05078125 C227.62642349 51.70903952 233.64953567 54.22784244 239.71386719 56.67456055 C248.67147674 60.30193068 256.15104253 64.4515259 263.76953125 70.44604492 C264.53652344 71.0312793 265.30351563 71.61651367 266.09375 72.21948242 C274.20854973 78.80406277 279.00918664 87.35036085 283.21484375 96.78198242 C286.51119605 102.43050572 291.37813485 104.29420171 297.33203125 106.32104492 C317.42243911 113.5462402 330.76299019 123.11725842 339.97265625 142.50854492 C341.81562895 146.49335077 343.52565748 150.51830715 345.078125 154.62573242 C345.75672526 156.5041669 345.75672526 156.5041669 346.76953125 158.44604492 C349.03051493 159.3838902 351.28245765 160.23950519 353.58203125 161.07104492 C370.81545333 167.66972347 382.87688138 178.86635509 390.76953125 195.44604492 C392.43046079 199.23671475 393.91921788 203.09102103 395.40234375 206.95385742 C399.1350074 216.48814687 402.55426703 222.99572273 411.58203125 228.25854492 C427.44603282 238.0739923 438.27970883 253.33259133 446.7265625 269.57104492 C449.30852478 274.51454297 452.1019214 279.32867706 454.8984375 284.15307617 C456.62625338 287.19388783 458.23272019 290.27400909 459.83203125 293.38354492 C461.63113064 296.7247295 463.35921896 299.24950377 466.14453125 301.82104492 C503.33265964 336.21183622 502.19517906 427.68200609 504.08027267 474.44717312 C504.1651711 476.85472403 504.24555531 479.26243741 504.32196045 481.67027283 C504.34289366 482.32424716 504.36382687 482.9782215 504.38539442 483.65201323 C504.88411203 499.57176518 504.92649744 515.48899914 504.92957401 531.41525376 C504.93146797 535.66019727 504.93903468 539.90513201 504.94570923 544.15007019 C504.95911507 553.37363097 504.96528768 562.59718731 504.96971989 571.8207562 C504.97251006 577.6071737 504.97675169 583.39358961 504.98122406 589.18000603 C504.99338833 605.28362325 505.00369648 621.38723923 505.00709915 637.49086094 C505.00731872 638.51524721 505.00753828 639.53963349 505.0077645 640.59506178 C505.00798278 641.62149481 505.00820106 642.64792784 505.00842595 643.7054649 C505.00886937 645.78443754 505.00931594 647.86341018 505.00976562 649.94238281 C505.00998705 650.9735621 505.01020848 652.00474138 505.01043662 653.06716853 C505.01438175 669.76198383 505.03183994 686.45675543 505.05512515 703.15155388 C505.0789822 720.39896974 505.09130729 737.64636378 505.09246707 754.89379638 C505.09337527 764.53471172 505.09890879 774.17556987 505.11728668 783.81646919 C505.13288267 792.02500301 505.13769542 800.23346192 505.12954858 808.44200779 C505.12571098 812.60891067 505.12622132 816.77566363 505.14060593 820.94254684 C505.53822189 943.38928211 505.53822189 943.38928211 479.45703125 971.25854492 C475.37735298 975.08209989 470.67899034 977.81874472 465.76953125 980.44604492 C465.20186035 980.7626709 464.63418945 981.07929687 464.04931641 981.40551758 C441.99192012 993.19819304 412.88498855 994.28014932 388.31591797 995.53222656 C387.50215942 995.57463286 386.68840087 995.61703915 385.84998298 995.66073048 C367.4963401 996.60031911 349.1572953 996.79107405 330.78283167 996.81349063 C328.09926111 996.81721229 325.41570729 996.82348758 322.7321434 996.83049202 C313.30270362 996.854691 303.87331687 996.86798139 294.44384766 996.87158203 C285.75354682 996.87523613 277.0635948 996.90534156 268.37340081 996.94698662 C260.80882843 996.98192545 253.24437116 996.99713418 245.67971885 996.99782807 C241.2058256 996.99861023 236.73229483 997.00685491 232.2584877 997.03582573 C200.55933828 997.22783861 200.55933828 997.22783861 186.03466797 994.34863281 C185.11806459 994.17138137 184.20146122 993.99412992 183.25708199 993.81150723 C173.15982115 991.44067961 164.65649796 984.91577399 158.76953125 976.44604492 C151.51307369 964.07241564 149.31903161 953.34425472 149.37512207 939.09693909 C149.37022674 937.55092027 149.36403397 936.00490511 149.35666418 934.4588961 C149.34032185 930.23112399 149.34257096 926.00353905 149.34803915 921.77574646 C149.35071654 917.20766759 149.33616393 912.63963782 149.32394409 908.07157898 C149.30291488 899.12831799 149.29834791 890.18512186 149.30013198 881.24183906 C149.30144135 873.96677467 149.2976265 866.69173044 149.29020691 859.41666985 C149.28810761 857.31828163 149.28601001 855.21989342 149.28391409 853.1215052 C149.2823488 851.55464248 149.2823488 851.55464248 149.28075188 849.95612597 C149.2618582 830.20926372 149.26289648 810.46243864 149.26972121 790.7155711 C149.27529083 772.68090873 149.25449446 754.64638868 149.22136074 736.61175955 C149.18755956 718.06896551 149.17246375 699.52623951 149.17707777 680.98341411 C149.17931664 670.58320027 149.17416544 660.1831178 149.14918518 649.78293037 C149.12808841 640.92442121 149.12466225 632.06611538 149.14348477 623.20759762 C149.15259286 618.69476934 149.15393874 614.18231931 149.13312912 609.66952133 C148.92755554 561.97474845 148.92755554 561.97474845 161.8046875 548.28198242 C169.54942123 540.97562985 177.19936067 537.851167 187.640625 536.21875 C189.25957924 535.96545913 189.25957924 535.96545913 190.91123962 535.70705128 C204.28916502 533.82920724 217.70129907 533.95177611 231.17630005 534.0518856 C235.94435434 534.08728607 240.71206365 534.08761828 245.48022461 534.08296204 C258.15661547 534.07554848 270.83280333 534.10902267 283.50904751 534.16939336 C291.89305835 534.20924031 300.27657808 534.22911542 308.66068172 534.211016 C313.39302655 534.20237065 318.12380968 534.22507221 322.85591316 534.27204359 C325.79556466 534.29393424 328.73461599 534.28648681 331.67428589 534.27102661 C333.67034368 534.26911189 335.66634191 534.30191664 337.66210938 534.33601379 C345.12554839 534.26008417 349.50061663 533.20468815 355.18950272 528.26047516 C357.56941494 525.52749622 357.8466207 523.54973554 357.75390625 519.96557617 C357.73444946 518.11766479 357.73444946 518.11766479 357.71459961 516.23242188 C357.65022705 514.92104248 357.58585449 513.60966309 357.51953125 512.25854492 C357.4788553 510.87213715 357.44056308 509.48565759 357.40454102 508.09912109 C357.27272014 503.87582885 357.03403058 499.6628404 356.76953125 495.44604492 C356.6600415 493.5975293 356.6600415 493.5975293 356.54833984 491.71166992 C355.17353001 471.03544088 353.28806813 445.63940846 340.078125 428.79370117 C331.43096128 417.01425357 328.90536161 402.28903117 325.58203125 388.38354492 C325.05786368 386.23155394 324.53248089 384.07985858 324.00585938 381.9284668 C322.26565923 374.80436034 320.53505884 367.67795013 318.84301758 360.54223633 C317.53488357 355.11719047 316.0134172 350.08416356 313.83203125 344.94604492 C312.00694434 340.62423912 310.39872019 336.34617328 308.97265625 331.87573242 C306.82750517 325.35920502 304.16861237 319.13539969 301.2980957 312.9074707 C300.45158172 311.05914613 299.63123797 309.20048414 298.81054688 307.34057617 C295.72475685 300.6152298 293.0471479 295.51961097 286.76953125 291.44604492 C285.85429688 290.82600586 284.9390625 290.2059668 283.99609375 289.56713867 C283.13757813 289.01155273 282.2790625 288.4559668 281.39453125 287.88354492 C274.77433738 283.16132159 271.11476214 277.15749066 266.76953125 270.44604492 C262.8950292 265.01167841 258.31384516 261.58618718 252.87109375 257.77026367 C249.24966123 255.05646978 245.9117859 252.13098015 242.58203125 249.07104492 C242.00509521 248.54679932 241.42815918 248.02255371 240.83374023 247.48242188 C239.43673091 246.18090916 238.09729043 244.8181331 236.76953125 243.44604492 C236.76953125 242.78604492 236.76953125 242.12604492 236.76953125 241.44604492 C236.00640625 241.23979492 235.24328125 241.03354492 234.45703125 240.82104492 C225.02165196 237.3027679 217.02997507 232.46092764 210.76953125 224.44604492 C209.96858793 222.6676346 209.19824043 220.87516865 208.45703125 219.07104492 C204.37568038 210.79206537 195.07430401 207.59822265 187.18041992 203.70336914 C184.88313831 202.50529316 182.74491565 201.19187233 180.578125 199.77416992 C177.09160779 197.53821323 173.69711463 196.24641832 169.70703125 195.07104492 C164.38309846 193.4341422 159.49565169 191.43945437 154.51953125 188.94604492 C149.2254655 186.35402962 144.05327738 184.5395928 138.33203125 183.13354492 C91.74482623 171.65838074 91.74482623 171.65838074 73.05859375 158.92260742 C45.07726102 141.38876266 -11.0890406 145.32191326 -42.17095947 151.9369812 C-52.01995971 154.21053256 -61.10293131 157.43917721 -69.48828125 163.13745117 C-80.62902634 170.47877949 -94.28155131 173.83866294 -106.91796875 177.63354492 C-108.64018358 178.158248 -110.36219001 178.68363562 -112.08398438 179.2097168 C-118.82232455 181.260641 -125.55010502 183.29811327 -132.37109375 185.05932617 C-137.26705156 186.36589433 -141.72464195 188.2741505 -146.29296875 190.44604492 C-150.87282351 192.61180735 -155.29492743 194.52500689 -160.19140625 195.86010742 C-165.57104787 197.39967079 -170.03710393 199.91969293 -174.79296875 202.82104492 C-176.37714261 203.76713071 -177.96177662 204.71244643 -179.546875 205.65698242 C-180.31660645 206.12362305 -181.08633789 206.59026367 -181.87939453 207.07104492 C-184.2571477 208.46164781 -186.68388043 209.70960716 -189.1328125 210.96948242 C-192.84166809 213.01588709 -194.55027901 214.70559429 -196.23046875 218.69604492 C-202.05011825 230.44574377 -211.66372046 236.19883031 -223.23046875 241.44604492 C-223.89046875 241.44604492 -224.55046875 241.44604492 -225.23046875 241.44604492 C-225.44960938 241.99905273 -225.66875 242.55206055 -225.89453125 243.12182617 C-227.64789951 246.17227679 -230.01381416 248.31041728 -232.60546875 250.63354492 C-233.13205078 251.11259277 -233.65863281 251.59164062 -234.20117188 252.08520508 C-238.78320989 256.18756948 -243.61377577 259.82456575 -248.63671875 263.37573242 C-253.29294642 267.09229969 -256.10800468 271.7876197 -259.29296875 276.75854492 C-262.95309675 282.24564429 -266.86743048 285.94984448 -272.45703125 289.56713867 C-273.37226563 290.18717773 -274.2875 290.8072168 -275.23046875 291.44604492 C-275.76760498 291.77652832 -276.30474121 292.10701172 -276.8581543 292.44750977 C-283.80370804 297.39703505 -286.50519998 305.637025 -289.79296875 313.19604492 C-290.45872225 314.69215616 -291.12506548 316.18800512 -291.79199219 317.68359375 C-295.75851703 326.65815475 -299.37803144 335.66057091 -302.15234375 345.08276367 C-303.23046875 348.44604492 -303.23046875 348.44604492 -304.73828125 351.29760742 C-306.71681747 355.47221525 -307.46931641 359.61892023 -308.35546875 364.13354492 C-310.38483701 373.83297906 -312.58679696 383.48388678 -314.97918701 393.09976196 C-315.34837119 394.59526363 -315.71081967 396.09244804 -316.06573486 397.59140015 C-319.24576591 410.98202642 -324.27091646 422.70927074 -331.99609375 434.13745117 C-335.77511869 439.89499512 -337.43581572 445.71717252 -338.98046875 452.38354492 C-339.26994385 453.59937256 -339.55941895 454.8152002 -339.85766602 456.06787109 C-342.81752035 469.10314681 -344.44074405 482.11312107 -345.23046875 495.44604492 C-345.29358246 496.45223877 -345.29358246 496.45223877 -345.35797119 497.47875977 C-345.61799574 501.71699976 -345.80967198 505.95105403 -345.91995239 510.19589233 C-345.9790153 512.20900536 -346.07679445 514.22086467 -346.17553711 516.23242188 C-346.1885083 517.46436279 -346.20147949 518.69630371 -346.21484375 519.96557617 C-346.24288086 521.04943604 -346.27091797 522.1332959 -346.29980469 523.25 C-344.57271741 528.41194054 -340.96142768 530.93468563 -336.23046875 533.44604492 C-331.54081407 534.41487311 -326.97811375 534.35062238 -322.203125 534.26904297 C-320.80394882 534.27038513 -319.40477271 534.27486817 -318.00561523 534.28222656 C-315.00477882 534.29143543 -312.00512539 534.27887548 -309.00442505 534.24909019 C-304.23312021 534.20211724 -299.46263811 534.20596226 -294.69116211 534.21626282 C-286.25710125 534.22806434 -277.82359936 534.19727123 -269.38964844 534.15710449 C-256.75830078 534.09737334 -244.12693877 534.07301533 -231.49545956 534.08535033 C-227.54252735 534.08791494 -223.59007129 534.08123345 -219.63723755 534.0518856 C-205.10640613 533.94412818 -190.70085823 533.9323594 -176.2890625 536.09375 C-175.31937027 536.23252658 -174.34967804 536.37130316 -173.3506012 536.51428509 C-163.29813394 538.26631549 -153.39824661 543.09283397 -147.23046875 551.44604492 C-139.40152378 564.51621635 -137.62469379 579.63937259 -137.71580505 594.54359436 C-137.71046432 596.09764445 -137.70338995 597.65168936 -137.694758 599.20572466 C-137.67630637 603.42772128 -137.68237442 607.64936298 -137.69291103 611.8713733 C-137.69995312 616.44336729 -137.68386757 621.01529198 -137.6709137 625.58726501 C-137.64935305 634.52437313 -137.64937992 643.46135352 -137.65753924 652.39847905 C-137.66385679 659.66581102 -137.66268618 666.93310594 -137.65626717 674.20043755 C-137.65536551 675.23747469 -137.65446386 676.27451183 -137.65353488 677.34297435 C-137.65168356 679.45013584 -137.64982099 681.55729733 -137.64794732 683.6644588 C-137.63139704 703.39025777 -137.64006501 723.11598506 -137.6569329 742.8417797 C-137.67163301 760.86583401 -137.65699211 778.88972167 -137.62816273 796.91375453 C-137.59873283 815.45220509 -137.58780658 833.99057883 -137.59734493 852.52905172 C-137.59836742 854.62785716 -137.59936203 856.7266626 -137.60032845 858.82546806 C-137.60080484 859.85794304 -137.60128123 860.89041801 -137.60177205 861.95418011 C-137.60393112 869.20797363 -137.59415936 876.46169397 -137.57955742 883.71547127 C-137.56199595 892.56224672 -137.56220638 901.40880967 -137.58490907 910.25557692 C-137.59601563 914.76389474 -137.5992955 919.2718387 -137.58060837 923.78013992 C-137.56368535 927.91622857 -137.57031242 932.05162067 -137.59482516 936.18766516 C-137.59967029 937.67465498 -137.59629834 939.16170227 -137.58333772 940.6486435 C-137.45739242 956.23699238 -141.36004282 971.28603464 -152.50390625 982.79370117 C-171.24957267 999.95127958 -199.51614164 997.1731308 -223.33661127 997.01887774 C-227.86175026 996.99457842 -232.38688626 996.99798893 -236.91207886 996.99757385 C-244.51848577 996.99297489 -252.12463917 996.96955639 -259.73095703 996.93310547 C-268.41262758 996.89160063 -277.09407003 996.87380085 -285.7758342 996.87048572 C-295.15840516 996.86682544 -304.54089893 996.84785505 -313.92343664 996.82336545 C-316.56008404 996.81726182 -319.19672551 996.81354802 -321.83337784 996.81033134 C-340.1146876 996.78198593 -358.35306193 996.4945009 -376.61279297 995.56347656 C-377.38083952 995.52589953 -378.14888608 995.4883225 -378.94020677 995.44960678 C-410.63712069 993.85990823 -448.06194907 991.38258183 -471.23046875 967.44604492 C-477.58114934 960.06552423 -480.78555565 951.69427016 -482.73046875 942.25854492 C-482.93913574 941.26588623 -483.14780273 940.27322754 -483.36279297 939.25048828 C-490.08782998 906.06322454 -493.41512766 871.15219982 -493.35745239 837.29136658 C-493.3586084 835.83947144 -493.36019912 834.3875766 -493.36217964 832.93568236 C-493.36630781 828.99551574 -493.36431205 825.05537372 -493.36119342 821.11520708 C-493.35891237 816.84559687 -493.36243249 812.57599062 -493.36517334 808.30638123 C-493.36960298 799.95750338 -493.36866658 791.60863457 -493.3657607 783.25975638 C-493.36349334 776.46072777 -493.36319991 769.66170168 -493.36428452 762.86267281 C-493.36443775 761.89131318 -493.36459098 760.91995355 -493.36474886 759.91915878 C-493.36506862 757.94506299 -493.36539284 755.9709672 -493.36572145 753.99687142 C-493.36856862 735.51148664 -493.36530237 717.02610682 -493.35992108 698.54072285 C-493.35546435 682.74410571 -493.35622111 666.94749592 -493.36083984 651.15087891 C-493.36621747 632.75049438 -493.3682829 614.35011423 -493.36522758 595.94972903 C-493.36490908 593.97870386 -493.36459471 592.00767869 -493.36428452 590.03665352 C-493.36413024 589.06724036 -493.36397596 588.09782721 -493.36381701 587.0990379 C-493.36296059 580.33068724 -493.36439593 573.5623394 -493.36676407 566.79398918 C-493.36959832 558.51207941 -493.36874913 550.23017909 -493.36348332 541.94827037 C-493.36089279 537.73783446 -493.35975989 533.52741417 -493.36313248 529.31697845 C-493.38290281 502.36235174 -493.14979213 475.39136527 -490.98046875 448.50854492 C-490.91833191 447.71773529 -490.85619507 446.92692566 -490.79217529 446.1121521 C-481.52036401 329.37553718 -481.52036401 329.37553718 -455.98046875 303.94604492 C-448.41074667 296.22851794 -444.21663376 286.57364778 -439.49462891 276.96069336 C-437.86040309 273.70991585 -436.0605818 270.59047715 -434.23046875 267.44604492 C-433.66328125 266.3606543 -433.09609375 265.27526367 -432.51171875 264.15698242 C-427.92096074 255.55937861 -422.51057809 248.78487269 -415.6484375 241.88745117 C-414.37452034 240.59247753 -413.14319932 239.25592568 -411.91796875 237.91479492 C-407.80998707 233.50475577 -403.79472139 230.49087504 -398.54296875 227.50854492 C-388.84405706 221.74558693 -386.19862752 213.68129339 -382.54248047 203.55493164 C-375.32012926 183.77844834 -363.27033963 171.10196364 -344.5625 161.92651367 C-341.23046875 160.44604492 -341.23046875 160.44604492 -337.9296875 159.48120117 C-335.19413401 158.70735137 -335.19413401 158.70735137 -333.98046875 156.77416992 C-333.73296875 156.08838867 -333.48546875 155.40260742 -333.23046875 154.69604492 C-332.9159375 153.89424805 -332.60140625 153.09245117 -332.27734375 152.26635742 C-331.931875 151.3356543 -331.58640625 150.40495117 -331.23046875 149.44604492 C-324.41659619 132.00088927 -314.97649641 118.3996139 -297.43261719 110.65209961 C-294.25732104 109.32249459 -291.05836659 108.07278929 -287.84375 106.84057617 C-278.05233885 103.06162073 -272.69823241 100.36962159 -268.41796875 90.75854492 C-258.73634367 70.48949158 -239.85179867 61.17128835 -219.83203125 52.94213867 C-201.9055812 45.97970971 -201.9055812 45.97970971 -186.6640625 34.67260742 C-178.73329085 27.41652421 -168.74451569 23.26844573 -158.5 20.46166992 C-157.59028442 20.20785049 -156.68056885 19.95403107 -155.74328613 19.69252014 C-145.98878488 17.02337566 -136.14195509 14.87753238 -126.23046875 12.88354492 C-125.29047028 12.69250183 -124.3504718 12.50145874 -123.38198853 12.30462646 C-110.280973 9.65578049 -97.16637174 7.34513815 -83.91796875 5.57104492 C-82.90319458 5.43398636 -82.90319458 5.43398636 -81.86791992 5.29415894 C-77.56615179 4.72294162 -73.25927887 4.21990857 -68.94549561 3.7484436 C-66.99195185 3.53085863 -65.03945689 3.30378087 -63.08770752 3.07064819 C-42.02070327 0.57395532 -21.19723934 -0.05798836 0 0 Z M-342.63256836 685.60571289 C-343.15987549 686.54302246 -343.68718262 687.48033203 -344.23046875 688.44604492 C-344.91144119 689.37354553 -345.59241364 690.30104614 -346.29402161 691.25665283 C-349.44596056 696.82666515 -348.82015432 703.09277709 -348.81152344 709.31665039 C-348.82350598 710.72179585 -348.83711983 712.12692819 -348.85223389 713.53204346 C-348.88744511 717.33383593 -348.89693982 721.13526791 -348.89949703 724.9372077 C-348.90234726 727.31615885 -348.91089985 729.69501935 -348.9214859 732.07394791 C-348.95844846 740.38374872 -348.97483171 748.69329353 -348.97167969 757.00317383 C-348.96927688 764.73288992 -349.01148754 772.46148911 -349.07465434 780.19092262 C-349.12705743 786.84173326 -349.14841117 793.4921799 -349.14585805 800.14319527 C-349.1448411 804.1092698 -349.1560747 808.07435066 -349.19857025 812.04021835 C-349.23747157 815.77220738 -349.23749929 819.50226193 -349.20850372 823.23432159 C-349.2023676 825.24484193 -349.23558926 827.25536381 -349.27026367 829.26559448 C-349.1629689 837.02842918 -347.94196078 841.19276134 -342.33693314 846.6810627 C-335.61342325 852.31461412 -330.3728164 852.07950148 -321.73046875 852.07104492 C-321.03638916 852.07383453 -320.34230957 852.07662415 -319.62719727 852.07949829 C-307.09305616 852.07135407 -296.61811462 849.68059657 -285.23046875 844.44604492 C-283.90826257 843.90913567 -282.58538743 843.37386966 -281.26171875 842.84057617 C-278.14059974 841.78768383 -278.14059974 841.78768383 -277.23046875 839.44604492 C-277.12614706 837.55700757 -277.08657477 835.66427391 -277.0765686 833.77238464 C-277.06796814 832.56522293 -277.05936768 831.35806122 -277.05050659 830.11431885 C-277.04607125 828.76940961 -277.04177291 827.42449991 -277.03759766 826.07958984 C-277.02969742 824.6687042 -277.02142852 823.25782057 -277.01281738 821.84693909 C-276.98658909 817.20681694 -276.9712894 812.56668572 -276.95703125 807.92651367 C-276.95167199 806.32993374 -276.94629448 804.73335387 -276.9408989 803.13677406 C-276.91926938 796.49620312 -276.90053207 789.85563461 -276.8892765 783.21503735 C-276.87303324 773.69400924 -276.83984756 764.17338898 -276.78287566 754.65251464 C-276.74419361 747.96030708 -276.72464592 741.2682087 -276.71935594 734.57589227 C-276.71570017 730.57766877 -276.70365573 726.57988018 -276.6712532 722.58177757 C-276.64120242 718.81991841 -276.63484949 715.05875797 -276.64663696 711.29680443 C-276.64685795 709.91691485 -276.63853161 708.53699313 -276.62098312 707.15721512 C-276.3352339 699.19119658 -276.3352339 699.19119658 -279.56478882 692.21748352 C-282.65420778 690.16445535 -285.73031673 688.16969675 -288.98046875 686.38354492 C-289.55023438 686.05805664 -290.12 685.73256836 -290.70703125 685.3972168 C-292.52955799 684.37457679 -294.37676435 683.41085089 -296.23046875 682.44604492 C-296.86138428 682.08124023 -297.4922998 681.71643555 -298.14233398 681.34057617 C-304.71257096 677.89145378 -311.42756722 677.6346163 -318.71459961 677.5949707 C-320.79684619 677.57100029 -322.86748793 677.4723696 -324.94726562 677.37182617 C-333.37809883 677.16555876 -337.84221147 678.38725295 -342.63256836 685.60571289 Z M300.76953125 686.44604492 C298.81530522 687.55746477 296.85743395 688.6625219 294.89453125 689.75854492 C291.85524894 691.55635768 290.7883373 692.41783585 288.76953125 695.44604492 C288.46418149 698.14913996 288.46418149 698.14913996 288.50883484 701.25341797 C288.50175003 702.46484467 288.49466522 703.67627136 288.48736572 704.92440796 C288.48965959 706.26886024 288.4921693 707.61331216 288.49487305 708.95776367 C288.49052642 710.37204254 288.48534344 711.78631905 288.47938538 713.20059204 C288.46597983 717.04349495 288.46541834 720.88629961 288.46794868 724.72922134 C288.46901717 727.93517063 288.46413823 731.14109993 288.45934325 734.34704494 C288.44824305 741.90838041 288.44781378 749.46966619 288.45385742 757.03100586 C288.45990102 764.8376147 288.44757766 772.64404349 288.42628735 780.4506216 C288.4086901 787.14877442 288.40266695 793.84686981 288.4059251 800.5450449 C288.40774084 804.5475256 288.40507278 808.54987782 288.39121056 812.55233765 C288.37866694 816.31491848 288.38054309 820.07721782 288.39362144 823.83979416 C288.39599425 825.2221117 288.39322742 826.60444884 288.38499832 827.98674393 C288.3745898 829.87069429 288.38440116 831.75472434 288.39530945 833.63867188 C288.39514171 834.69391556 288.39497396 835.74915924 288.39480114 836.83638 C288.82330488 839.82053089 289.39646976 840.66326741 291.76953125 842.44604492 C304.77192189 849.52331427 318.64754379 852.3676877 333.26953125 852.50854492 C335.22584473 852.55724731 335.22584473 852.55724731 337.22167969 852.60693359 C345.08408507 852.47494221 349.47407597 851.23220643 355.01757812 845.54931641 C355.59572266 844.85523682 356.17386719 844.16115723 356.76953125 843.44604492 C357.29225302 842.86381196 357.81497478 842.281579 358.35353661 841.68170261 C360.17042412 838.8130911 360.15689065 836.95634569 360.17739868 833.57225037 C360.19875885 831.77039024 360.19875885 831.77039024 360.22055054 829.93212891 C360.22076202 828.61728516 360.22097351 827.30244141 360.22119141 825.94775391 C360.23180778 824.54630096 360.24363845 823.14485676 360.2565918 821.74342346 C360.28736993 817.93723256 360.29851416 814.1312297 360.30423403 810.32492709 C360.3085913 807.94347999 360.31696867 805.5620814 360.32673264 803.18065071 C360.36048813 794.86210774 360.37761399 786.54370662 360.38037109 778.22509766 C360.38340001 770.48935696 360.42376916 762.75441879 360.48151934 755.01891083 C360.52942812 748.365604 360.5501033 741.71256067 360.55016172 735.05908257 C360.55069798 731.09074342 360.56211164 727.12318894 360.60133743 723.15502739 C360.63742145 719.41585091 360.63935639 715.67812745 360.61616516 711.93886375 C360.61198007 709.92870869 360.64219068 707.91857181 360.67379761 705.90866089 C360.56999654 696.82872589 358.18010455 691.62986449 352.76953125 684.44604492 C352.42553598 683.7959014 352.08154072 683.14575788 351.72712135 682.47591305 C350.68924381 680.46349762 350.68924381 680.46349762 347.76953125 678.44604492 C342.83830211 677.50154747 337.95852561 677.4845101 332.95703125 677.57104492 C331.90849472 677.57717804 331.90849472 677.57717804 330.83877563 677.58343506 C319.10130257 677.69581997 310.47627052 679.72040161 300.76953125 686.44604492 Z " fill="#000000" transform="translate(634.23046875,142.553955078125)"/>
</svg>
